<svg xmlns="http://www.w3.org/2000/svg" viewBox="0 0 1024 1024" width="1024" height="1024">
<!-- Goro — banana. Generated by tools/characters/gen_goro.py; edit the script, not this file. -->
<defs>
  <linearGradient id="bgGrad" x1="0%" y1="0%" x2="100%" y2="100%">
    <stop offset="0%" style="stop-color:#4DA6FF"/><stop offset="100%" style="stop-color:#2B7DE9"/>
  </linearGradient>
  <radialGradient id="glow" cx="50%" cy="45%" r="40%">
    <stop offset="0%" style="stop-color:#A8D8FF;stop-opacity:0.2"/><stop offset="100%" style="stop-color:#4DA6FF;stop-opacity:0"/>
  </radialGradient>
  <linearGradient id="faceGrad" x1="0%" y1="0%" x2="0%" y2="100%">
    <stop offset="0%" style="stop-color:#C4A882"/><stop offset="100%" style="stop-color:#A8896A"/>
  </linearGradient>
  <linearGradient id="muzzleGrad" x1="0%" y1="0%" x2="0%" y2="100%">
    <stop offset="0%" style="stop-color:#B89870"/><stop offset="100%" style="stop-color:#9A7E5A"/>
  </linearGradient>
  <linearGradient id="steel" x1="0%" y1="0%" x2="100%" y2="0%">
    <stop offset="0%" style="stop-color:#9AA6B8"/><stop offset="45%" style="stop-color:#E6ECF5"/><stop offset="100%" style="stop-color:#8592A6"/>
  </linearGradient>
  <linearGradient id="steelH" x1="0%" y1="0%" x2="0%" y2="100%">
    <stop offset="0%" style="stop-color:#9AA6B8"/><stop offset="45%" style="stop-color:#E6ECF5"/><stop offset="100%" style="stop-color:#8592A6"/>
  </linearGradient>
  <linearGradient id="banana" x1="0%" y1="0%" x2="100%" y2="100%">
    <stop offset="0%" style="stop-color:#FFE36E"/><stop offset="100%" style="stop-color:#F5C531"/>
  </linearGradient>
  <linearGradient id="badge" x1="0%" y1="0%" x2="100%" y2="100%">
    <stop offset="0%" style="stop-color:#D9DEE8"/><stop offset="100%" style="stop-color:#9AA3B5"/>
  </linearGradient>
</defs>
<rect width="1024" height="1024" rx="224" fill="url(#bgGrad)"/>
<circle cx="512" cy="450" r="380" fill="url(#glow)"/>
<ellipse cx="512" cy="990" rx="200" ry="22" fill="#2B7DE9" opacity="0.35"/>
<path d="M428.5 786.1 Q405.9 826.8 400.4 873.8 A36 36 0 0 0 467.9 898.8 Q494.3 859.5 503.5 813.9 A40 40 0 0 0 428.5 786.1Z" fill="#38384C"/>
<path d="M435.9 789.2 Q417.2 831.3 407 876.5 A18 18 0 0 0 441 888.6 Q461.6 847.1 473.6 802.5 A20 20 0 0 0 435.9 789.2Z" fill="#424258" opacity="0.5"/>
<path d="M400.1 897.9 Q407.2 937.8 429.7 972.4 A32 32 0 0 0 490.3 951.6 Q487 910.5 468.2 874.7 A36 36 0 0 0 400.1 897.9Z" fill="#38384C"/>
<path d="M407 895.9 Q417.6 934.6 435.9 970.5 A16 16 0 0 0 466 959.7 Q457.3 920.3 440.8 883.7 A18 18 0 0 0 407 895.9Z" fill="#424258" opacity="0.5"/>
<ellipse cx="460" cy="976" rx="54" ry="22" fill="#2E2E42"/>
<ellipse cx="474" cy="976" rx="14" ry="10" fill="#282838" opacity="0.7"/>
<path d="M520.5 813.9 Q529.7 859.5 556.1 898.8 A36 36 0 0 0 623.6 873.8 Q618.1 826.8 595.5 786.1 A40 40 0 0 0 520.5 813.9Z" fill="#38384C"/>
<path d="M550.4 802.5 Q562.4 847.1 583 888.6 A18 18 0 0 0 617 876.5 Q606.8 831.3 588.1 789.2 A20 20 0 0 0 550.4 802.5Z" fill="#424258" opacity="0.5"/>
<path d="M555.8 874.7 Q537 910.5 533.7 951.6 A32 32 0 0 0 594.3 972.4 Q616.8 937.8 623.9 897.9 A36 36 0 0 0 555.8 874.7Z" fill="#38384C"/>
<path d="M583.2 883.7 Q566.7 920.3 558 959.7 A16 16 0 0 0 588.1 970.5 Q606.4 934.6 617 895.9 A18 18 0 0 0 583.2 883.7Z" fill="#424258" opacity="0.5"/>
<ellipse cx="564" cy="976" rx="54" ry="22" fill="#2E2E42"/>
<ellipse cx="578" cy="976" rx="14" ry="10" fill="#282838" opacity="0.7"/>
<g transform="translate(0 0) rotate(0 512 620)"><path d="M282 455 Q262 530 268 640 Q278 748 378 815 Q440 850 512 852 Q584 850 646 815 Q746 748 756 640 Q762 530 742 455 Q668 398 512 388 Q356 398 282 455Z" fill="#38384C"/>
<path d="M310 472 Q294 545 300 648 Q310 748 398 808 Q456 838 512 840 Q568 838 626 808 Q714 748 724 648 Q730 545 714 472 Q646 420 512 410 Q378 420 310 472Z" fill="#424258"/>
<ellipse cx="448" cy="548" rx="108" ry="72" fill="#4A4A60" opacity="0.38"/>
<ellipse cx="576" cy="548" rx="108" ry="72" fill="#4A4A60" opacity="0.38"/>
<path d="M512 480 Q512 585 512 665" stroke="#353548" stroke-width="4" opacity="0.5" fill="none"/>
<ellipse cx="512" cy="510" rx="85" ry="40" fill="#4A4A60" opacity="0.12"/>
<ellipse cx="512" cy="708" rx="58" ry="28" fill="#4A4A60" opacity="0.18"/>
<ellipse cx="512" cy="758" rx="52" ry="25" fill="#4A4A60" opacity="0.13"/></g>
<ellipse cx="298" cy="466" rx="98" ry="80" fill="#424258"/>
<ellipse cx="292" cy="460" rx="80" ry="66" fill="#4A4A60" opacity="0.3"/>
<path d="M276.8 470.4 Q201.9 594.6 145.9 729.5 A38 38 0 0 0 212 767 Q299 649.7 367.2 521.6 A52 52 0 0 0 276.8 470.4Z" fill="#38384C"/>
<path d="M285.6 475.8 Q214.3 602.1 152.4 733.5 A19 19 0 0 0 185.7 751.8 Q263.2 628.9 331.2 500.8 A26 26 0 0 0 285.6 475.8Z" fill="#424258" opacity="0.5"/>
<path d="M142.2 764.1 Q169.5 861.2 215.7 950.2 A46 46 0 0 0 300.3 913.8 Q267.5 819.1 215.7 732.5 A40 40 0 0 0 142.2 764.1Z" fill="#38384C"/>
<path d="M149.5 760.8 Q182.1 855.5 224.1 946.4 A23 23 0 0 0 266.5 928.6 Q231.2 834.9 186.4 745.3 A20 20 0 0 0 149.5 760.8Z" fill="#424258" opacity="0.5"/>
<ellipse cx="256.1" cy="955.9" rx="50" ry="40" fill="#38384C" transform="rotate(4.6 256.1 955.9)"/>
<ellipse cx="256.4" cy="951.9" rx="41" ry="32" fill="#424258" transform="rotate(4.6 256.4 951.9)"/>
<ellipse cx="283.9" cy="984.2" rx="12" ry="10" fill="#4A4A60" transform="rotate(4.6 283.9 984.2)" opacity="0.6"/>
<ellipse cx="264" cy="982.6" rx="12" ry="10" fill="#4A4A60" transform="rotate(4.6 264 982.6)" opacity="0.6"/>
<ellipse cx="244" cy="981" rx="12" ry="10" fill="#4A4A60" transform="rotate(4.6 244 981)" opacity="0.6"/>
<ellipse cx="224.1" cy="979.4" rx="12" ry="10" fill="#4A4A60" transform="rotate(4.6 224.1 979.4)" opacity="0.6"/>
<ellipse cx="300.4" cy="953.5" rx="16" ry="12" fill="#38384C" transform="rotate(-200.4 300.4 953.5)"/>
<g transform="translate(512 400) rotate(-5) translate(-512 -400)"><rect x="458" y="352" width="108" height="82" rx="44" fill="#38384C"/>
<ellipse cx="512" cy="228" rx="175" ry="185" fill="#38384C"/>
<ellipse cx="512" cy="112" rx="92" ry="55" fill="#38384C"/>
<ellipse cx="512" cy="82" rx="70" ry="48" fill="#353548"/>
<ellipse cx="512" cy="55" rx="45" ry="32" fill="#2E2E42"/>
<path d="M478 68 Q512 42 546 68 Q512 55 478 68Z" fill="#1A1A30" opacity="0.5"/>
<path d="M335 222 Q392 170 512 162 Q632 170 689 222 Q638 190 512 182 Q386 190 335 222Z" fill="#2E2E42"/>
<ellipse cx="512" cy="202" rx="168" ry="38" fill="#2E2E42" opacity="0.7"/>
<ellipse cx="512" cy="225" rx="148" ry="18" fill="#1A1A30" opacity="0.5"/>
<path d="M360 195 Q430 178 512 175 Q594 178 664 195 Q594 188 512 185 Q430 188 360 195Z" fill="#3A3A52" opacity="0.5"/>
<path d="M396 232 Q394 190 512 178 Q630 190 628 232 L636 348 Q642 428 512 442 Q382 428 388 348Z" fill="url(#faceGrad)"/>
<ellipse cx="512" cy="398" rx="96" ry="52" fill="url(#muzzleGrad)"/>
<ellipse cx="512" cy="393" rx="78" ry="40" fill="#C4A882" opacity="0.35"/>
<ellipse cx="340" cy="238" rx="33" ry="38" fill="#38384C"/>
<ellipse cx="342" cy="238" rx="21" ry="26" fill="#A8896A"/>
<ellipse cx="684" cy="238" rx="33" ry="38" fill="#38384C"/>
<ellipse cx="682" cy="238" rx="21" ry="26" fill="#A8896A"/>
<ellipse cx="452" cy="252" rx="50" ry="36" fill="#1A1A30" opacity="0.25"/>
<path d="M420 268 Q452 236 484 268" stroke="#1A1A2A" stroke-width="10" stroke-linecap="round" fill="none"/>
<ellipse cx="572" cy="252" rx="50" ry="36" fill="#1A1A30" opacity="0.25"/>
<path d="M540 268 Q572 236 604 268" stroke="#1A1A2A" stroke-width="10" stroke-linecap="round" fill="none"/>
<path d="M405 222 Q434 204 478 214" stroke="#1A1A2A" stroke-width="9" stroke-linecap="round" fill="none"/>
<path d="M619 222 Q590 204 546 214" stroke="#1A1A2A" stroke-width="9" stroke-linecap="round" fill="none"/>
<ellipse cx="512" cy="318" rx="54" ry="32" fill="#967756"/>
<ellipse cx="486" cy="323" rx="17" ry="14" fill="#7A6045"/>
<ellipse cx="538" cy="323" rx="17" ry="14" fill="#7A6045"/>
<path d="M503 292 Q512 287 521 292" stroke="#7A6045" stroke-width="5" fill="none" opacity="0.5"/>
<ellipse cx="512" cy="308" rx="20" ry="10" fill="#A88866" opacity="0.3"/>
<ellipse cx="512" cy="390" rx="26" ry="22" fill="#5A4030"/>
<ellipse cx="512" cy="398" rx="15" ry="9" fill="#D97A7A"/>
<path d="M348 168 Q432 126 512 122 Q592 126 676 168" stroke="#A8D8FF" stroke-width="22" stroke-linecap="round" fill="none"/>
<path d="M374 161 Q448 133 512 130 Q576 133 650 161" stroke="white" stroke-width="5" stroke-linecap="round" fill="none" opacity="0.25"/>
<g transform="translate(340, 176)"><path d="M0,0 Q-12,18 -20,45 Q-16,27 -6,13Z" fill="#A8D8FF"/><path d="M-2,-1 Q-17,13 -28,40 Q-20,22 -10,9Z" fill="#A8D8FF"/></g></g>
<ellipse cx="726" cy="466" rx="98" ry="80" fill="#424258"/>
<ellipse cx="732" cy="460" rx="80" ry="66" fill="#4A4A60" opacity="0.3"/>
<path d="M652.6 512.4 Q694.7 651.2 757.2 783.2 A38 38 0 0 0 829.4 759.3 Q800.6 616.1 751.4 479.6 A52 52 0 0 0 652.6 512.4Z" fill="#38384C"/>
<path d="M692 498.9 Q733.9 637.8 786 773.4 A19 19 0 0 0 822.3 761.9 Q787.1 621 741.6 483.3 A26 26 0 0 0 692 498.9Z" fill="#424258" opacity="0.5"/>
<path d="M827.6 750.6 Q787.3 658.1 729.4 576.2 A46 46 0 0 0 650.6 623.8 Q696 713.2 759.1 791.9 A40 40 0 0 0 827.6 750.6Z" fill="#38384C"/>
<path d="M800.1 767 Q753.3 678.3 697.8 595.1 A23 23 0 0 0 658.6 619.2 Q707.9 706.3 766 787.9 A20 20 0 0 0 800.1 767Z" fill="#424258" opacity="0.5"/>
<ellipse cx="675.9" cy="580.6" rx="50" ry="40" fill="#38384C" transform="rotate(-215.9 675.9 580.6)"/>
<ellipse cx="678.3" cy="583.8" rx="41" ry="32" fill="#424258" transform="rotate(-215.9 678.3 583.8)"/>
<ellipse cx="636.4" cy="577.1" rx="12" ry="10" fill="#4A4A60" transform="rotate(-215.9 636.4 577.1)" opacity="0.6"/>
<ellipse cx="652.6" cy="565.4" rx="12" ry="10" fill="#4A4A60" transform="rotate(-215.9 652.6 565.4)" opacity="0.6"/>
<ellipse cx="668.8" cy="553.6" rx="12" ry="10" fill="#4A4A60" transform="rotate(-215.9 668.8 553.6)" opacity="0.6"/>
<ellipse cx="685" cy="541.9" rx="12" ry="10" fill="#4A4A60" transform="rotate(-215.9 685 541.9)" opacity="0.6"/>
<ellipse cx="643.8" cy="611.2" rx="16" ry="12" fill="#38384C" transform="rotate(-60.9 643.8 611.2)"/>

<g transform="translate(675.9 580.6) rotate(-35.9)"><path d="M-26 -40 Q-30 34 -4 74 L6 74 Q30 30 26 -40Z" fill="url(#banana)"/>
<rect x="-7" y="70" width="14" height="18" rx="5" fill="#7A5A24"/>
<path d="M-22 -36 Q-44 -150 -14 -236 Q-2 -248 10 -236 Q-6 -150 24 -36Z" fill="#FFF2C2"/>
<path d="M8 -60 Q-8 -150 4 -226" stroke="#F0DFA0" stroke-width="8" stroke-linecap="round" fill="none"/>
<path d="M-26 -44 Q-74 -30 -92 32 Q-88 46 -76 40 Q-62 -4 -18 -14Z" fill="url(#banana)"/>
<path d="M26 -44 Q78 -30 96 26 Q92 40 80 34 Q64 -6 18 -14Z" fill="url(#banana)"/>
<path d="M-12 -46 Q-2 -6 -14 40 Q-2 50 8 38 Q14 -2 12 -46Z" fill="#E8B92A"/>
<path d="M-26 -44 Q0 -56 26 -44 L22 -30 Q0 -40 -22 -30Z" fill="#F5C531"/></g>
<ellipse cx="675.9" cy="580.6" rx="44" ry="34" fill="#38384C" transform="rotate(-215.9 675.9 580.6)"/>
<ellipse cx="678.3" cy="583.8" rx="36" ry="27" fill="#424258" transform="rotate(-215.9 678.3 583.8)"/>
<path d="M860 218 Q866.2 233.8 882 240 Q866.2 246.2 860 262 Q853.8 246.2 838 240 Q853.8 233.8 860 218Z" fill="#FFE27A" opacity="1.0"/>
<path d="M810 158 Q813.4 166.6 822 170 Q813.4 173.4 810 182 Q806.6 173.4 798 170 Q806.6 166.6 810 158Z" fill="#FFE27A" opacity="0.8"/>
</svg>
