<svg xmlns="http://www.w3.org/2000/svg" viewBox="0 0 1024 1024" width="1024" height="1024">
  <!-- MISO — sad (Yoga host, the cat). Generated by tools/characters/gen_hosts.py: edit the script, not this file. -->
  <defs>
    <linearGradient id="misoBg" x1="0%" y1="0%" x2="100%" y2="100%">
      <stop offset="0%" style="stop-color:#62CFC0"/>
      <stop offset="100%" style="stop-color:#1E7F86"/>
    </linearGradient>
    <radialGradient id="misoBgGlow" cx="50%" cy="48%" r="46%">
      <stop offset="0%" style="stop-color:#DFFFF8;stop-opacity:0.28"/>
      <stop offset="100%" style="stop-color:#DFFFF8;stop-opacity:0"/>
    </radialGradient>
  </defs>
  <rect width="1024" height="1024" rx="224" fill="url(#misoBg)"/>
  <circle cx="512" cy="500" r="430" fill="url(#misoBgGlow)"/>
  <circle cx="512" cy="470" r="360" fill="#FFFFFF" opacity="0.12"/>
  <circle cx="176" cy="236" r="14" fill="#FFFFFF" opacity="0.5"/>
  <circle cx="232" cy="176" r="9" fill="#FFFFFF" opacity="0.5"/>
  <circle cx="846" cy="300" r="12" fill="#FFFFFF" opacity="0.5"/>
  <circle cx="884" cy="372" r="7" fill="#FFFFFF" opacity="0.5"/>
  <circle cx="150" cy="640" r="9" fill="#FFFFFF" opacity="0.5"/>
  <circle cx="878" cy="700" r="11" fill="#FFFFFF" opacity="0.5"/>
  <path d="M670 1059 Q893 1040 853 832 Q832 745 788 776" stroke="#F0A35E" stroke-width="61" stroke-linecap="round" fill="none"/>
  <path d="M858 859 L822 866 M874 949 L832 934" stroke="#D77F3B" stroke-width="17" stroke-linecap="round"/>
  <ellipse cx="512" cy="908" rx="226" ry="212" fill="#F0A35E"/>
  <ellipse cx="512" cy="912" rx="131" ry="159" fill="#FCE6C8"/>
  <path d="M286 889 L349 904 M292 972 L344 980" stroke="#D77F3B" stroke-width="17" stroke-linecap="round"/>
  <path d="M738 889 L675 904 M732 972 L680 980" stroke="#D77F3B" stroke-width="17" stroke-linecap="round"/>
  <path d="M381 783 L418 1070" stroke="#F0A35E" stroke-width="74" stroke-linecap="round"/>
  <g transform="rotate(0 418 1070)">
  <ellipse cx="418" cy="1070" rx="48" ry="38" fill="#FCE6C8"/>
  <path d="M399 1039 L399 1056" stroke="#D77F3B" stroke-width="5" stroke-linecap="round" opacity="0.6"/>
  <path d="M418 1039 L418 1056" stroke="#D77F3B" stroke-width="5" stroke-linecap="round" opacity="0.6"/>
  <path d="M436 1039 L436 1056" stroke="#D77F3B" stroke-width="5" stroke-linecap="round" opacity="0.6"/>
  </g>
  <path d="M643 783 L606 1070" stroke="#F0A35E" stroke-width="74" stroke-linecap="round"/>
  <g transform="rotate(0 606 1070)">
  <ellipse cx="606" cy="1070" rx="48" ry="38" fill="#FCE6C8"/>
  <path d="M588 1039 L588 1056" stroke="#D77F3B" stroke-width="5" stroke-linecap="round" opacity="0.6"/>
  <path d="M606 1039 L606 1056" stroke="#D77F3B" stroke-width="5" stroke-linecap="round" opacity="0.6"/>
  <path d="M625 1039 L625 1056" stroke="#D77F3B" stroke-width="5" stroke-linecap="round" opacity="0.6"/>
  </g>
  <path d="M339 723 Q512 776 685 723 L675 764 Q512 817 349 764 Z" fill="#A8D8FF"/>
  <circle cx="512" cy="813" r="27" fill="#F5C842"/>
  <path d="M497 817 L527 817" stroke="#B88A1E" stroke-width="6" stroke-linecap="round"/>
  <path d="M298 404 L326 182 L472 318 Z" fill="#F0A35E" stroke="#F0A35E" stroke-width="36" stroke-linejoin="round" transform="rotate(-34 380 350)"/>
  <path d="M336 368 L344 238 L426 324 Z" fill="#F7AEB9" stroke="#F7AEB9" stroke-width="16" stroke-linejoin="round" transform="rotate(-34 380 350)"/>
  <path d="M726 404 L698 182 L552 318 Z" fill="#F0A35E" stroke="#F0A35E" stroke-width="36" stroke-linejoin="round" transform="rotate(34 644 350)"/>
  <path d="M688 368 L680 238 L598 324 Z" fill="#F7AEB9" stroke="#F7AEB9" stroke-width="16" stroke-linejoin="round" transform="rotate(34 644 350)"/>
  <path d="M280 530 L250 596 L316 584 L298 636 L362 620 Z" fill="#F0A35E"/>
  <path d="M744 530 L774 596 L708 584 L726 636 L662 620 Z" fill="#F0A35E"/>
  <ellipse cx="512" cy="500" rx="238" ry="196" fill="#F0A35E"/>
  <rect x="455" y="308" width="22" height="64" rx="11" fill="#D77F3B"/>
  <rect x="501" y="308" width="22" height="84" rx="11" fill="#D77F3B"/>
  <rect x="547" y="308" width="22" height="64" rx="11" fill="#D77F3B"/>
  <path d="M274 520 L336 528" stroke="#D77F3B" stroke-width="16" stroke-linecap="round"/>
  <path d="M274 556 L322 564" stroke="#D77F3B" stroke-width="16" stroke-linecap="round"/>
  <path d="M750 520 L688 528" stroke="#D77F3B" stroke-width="16" stroke-linecap="round"/>
  <path d="M750 556 L702 564" stroke="#D77F3B" stroke-width="16" stroke-linecap="round"/>
  <ellipse cx="512" cy="650" rx="58" ry="34" fill="#FCE6C8"/>
  <circle cx="460" cy="604" r="64" fill="#FCE6C8"/>
  <circle cx="564" cy="604" r="64" fill="#FCE6C8"/>
  <circle cx="420.0" cy="494.0" r="60.0" fill="#FFFFFF"/><circle cx="424.0" cy="510.0" r="33" fill="#1E1C36"/><circle cx="437" cy="496" r="10" fill="#FFFFFF"/>
  <circle cx="604.0" cy="494.0" r="60.0" fill="#FFFFFF"/><circle cx="600.0" cy="510.0" r="33" fill="#1E1C36"/><circle cx="613" cy="496" r="10" fill="#FFFFFF"/>
  <path d="M362 446 L460 416" stroke="#D77F3B" stroke-width="15" stroke-linecap="round"/>
  <path d="M662 446 L564 416" stroke="#D77F3B" stroke-width="15" stroke-linecap="round"/>
  <path d="M486 562 L538 562 L512 592 Z" fill="#EE8A9E" stroke="#EE8A9E" stroke-width="12" stroke-linejoin="round"/>
  <path d="M476 640 Q512 612 548 640" stroke="#8A4B2A" stroke-width="9" stroke-linecap="round" fill="none"/>
  <path d="M392 596 L226 570" stroke="#FFF6EA" stroke-width="7" stroke-linecap="round" opacity="0.9"/>
  <path d="M392 616 L226 618" stroke="#FFF6EA" stroke-width="7" stroke-linecap="round" opacity="0.9"/>
  <path d="M392 636 L226 664" stroke="#FFF6EA" stroke-width="7" stroke-linecap="round" opacity="0.9"/>
  <path d="M632 596 L798 570" stroke="#FFF6EA" stroke-width="7" stroke-linecap="round" opacity="0.9"/>
  <path d="M632 616 L798 618" stroke="#FFF6EA" stroke-width="7" stroke-linecap="round" opacity="0.9"/>
  <path d="M632 636 L798 664" stroke="#FFF6EA" stroke-width="7" stroke-linecap="round" opacity="0.9"/>
  <ellipse cx="344" cy="584" rx="30" ry="16" fill="#F7AEB9" opacity="0.55"/>
  <ellipse cx="680" cy="584" rx="30" ry="16" fill="#F7AEB9" opacity="0.55"/>
  <path d="M638 550 Q660 582 638 594 Q616 582 638 550 Z" fill="#8FD0FF"/>
</svg>
