<svg xmlns="http://www.w3.org/2000/svg" viewBox="0 0 1024 1024" width="1024" height="1024">
  <!-- RAFFI — sad (Healthy Body host, the giraffe). Generated by tools/characters/gen_hosts.py: edit the script, not this file. -->
  <defs>
    <linearGradient id="raffiBg" x1="0%" y1="0%" x2="100%" y2="100%">
      <stop offset="0%" style="stop-color:#5DC28C"/>
      <stop offset="100%" style="stop-color:#2B8556"/>
    </linearGradient>
    <radialGradient id="raffiBgGlow" cx="50%" cy="48%" r="46%">
      <stop offset="0%" style="stop-color:#C8F5D8;stop-opacity:0.28"/>
      <stop offset="100%" style="stop-color:#C8F5D8;stop-opacity:0"/>
    </radialGradient>
  </defs>
  <rect width="1024" height="1024" rx="224" fill="url(#raffiBg)"/>
  <circle cx="512" cy="500" r="430" fill="url(#raffiBgGlow)"/>
  <path d="M382 1000 L407 600 L617 600 L642 1000 Z" fill="#F2C462"/>
  <path d="M378 1000 L403 600" stroke="#B8642A" stroke-width="18" stroke-linecap="round"/>
  <ellipse cx="467" cy="920" rx="36" ry="30" fill="#C9782F" opacity="0.85"/>
  <ellipse cx="550" cy="832" rx="31" ry="26" fill="#C9782F" opacity="0.85"/>
  <ellipse cx="489" cy="752" rx="29" ry="24" fill="#C9782F" opacity="0.85"/>
  <ellipse cx="543" cy="672" rx="24" ry="20" fill="#C9782F" opacity="0.85"/>
  <rect x="384" y="858" width="257" height="44" rx="14" fill="#A8D8FF"/>
  <rect x="398" y="870" width="229" height="8" rx="4" fill="#FFFFFF" opacity="0.6"/>
  <g transform="rotate(0.0 512 430)">
  <rect x="425" y="174" width="32" height="114" rx="15" fill="#E2A452"/>
  <rect x="567" y="174" width="32" height="114" rx="15" fill="#E2A452"/>
  <circle cx="441" cy="172" r="28" fill="#6E4321"/>
  <circle cx="583" cy="172" r="28" fill="#6E4321"/>
  <ellipse cx="322" cy="306" rx="80" ry="32" fill="#F2C462" transform="rotate(-48 370 306)"/>
  <ellipse cx="326" cy="308" rx="53" ry="17" fill="#E3A04A" transform="rotate(-48 370 306)"/>
  <ellipse cx="702" cy="306" rx="80" ry="32" fill="#F2C462" transform="rotate(48 654 306)"/>
  <ellipse cx="698" cy="308" rx="53" ry="17" fill="#E3A04A" transform="rotate(48 654 306)"/>
  <path d="M370 326 C360 212 664 212 654 326 C664 449 645 572 616 620 L408 620 C379 572 360 449 370 326 Z" fill="#F2C462"/>
  <ellipse cx="474" cy="288" rx="28" ry="19" fill="#C9782F" opacity="0.8"/>
  <ellipse cx="561" cy="301" rx="21" ry="15" fill="#C9782F" opacity="0.8"/>
  <ellipse cx="512" cy="572" rx="133" ry="91" fill="#FBE6B8"/>
  <ellipse cx="468" cy="546" rx="13" ry="10" fill="#C9782F"/>
  <ellipse cx="556" cy="546" rx="13" ry="10" fill="#C9782F"/>
  <path d="M468 616 Q512 588 556 616" stroke="#C9782F" stroke-width="11" stroke-linecap="round" fill="none"/>
  <circle cx="443.6" cy="392.0" r="43.699999999999996" fill="#FFFFFF"/><circle cx="445.5" cy="403.4" r="24" fill="#1E1C36"/><circle cx="455" cy="393" r="7" fill="#FFFFFF"/>
  <circle cx="580.4" cy="392.0" r="43.699999999999996" fill="#FFFFFF"/><circle cx="578.5" cy="403.4" r="24" fill="#1E1C36"/><circle cx="588" cy="393" r="7" fill="#FFFFFF"/>
  <path d="M408 343 L474 324" stroke="#B8642A" stroke-width="11" stroke-linecap="round"/>
  <path d="M616 343 L550 324" stroke="#B8642A" stroke-width="11" stroke-linecap="round"/>
  <path d="M603 436 Q622 464 603 474 Q584 464 603 436 Z" fill="#8FD0FF"/>
  </g>
</svg>
